<svg width="720" height="300" viewBox="0 0 720 300" fill="none" xmlns="http://www.w3.org/2000/svg">
<path d="M289.375 148.562H317.938V196.188C313.604 197.896 309.146 199.167 304.562 200C300.021 200.833 295.396 201.25 290.688 201.25C283.146 201.25 276.833 199.333 271.75 195.5C266.708 191.625 262.896 186.167 260.312 179.125C257.771 172.083 256.5 163.729 256.5 154.062C256.5 144.521 257.938 136.271 260.812 129.312C263.729 122.312 267.979 116.896 273.562 113.062C279.146 109.229 285.958 107.312 294 107.312C298.417 107.312 302.542 107.854 306.375 108.938C310.208 109.979 313.646 111.354 316.688 113.062L311.562 127.562C308.938 125.896 306.208 124.625 303.375 123.75C300.583 122.875 297.667 122.438 294.625 122.438C290.25 122.438 286.583 123.688 283.625 126.188C280.667 128.646 278.438 132.271 276.938 137.062C275.438 141.812 274.688 147.646 274.688 154.562C274.688 160.938 275.292 166.5 276.5 171.25C277.75 175.958 279.625 179.604 282.125 182.188C284.667 184.771 287.896 186.062 291.812 186.062C293.438 186.062 295 185.938 296.5 185.688C298.042 185.438 299.479 185.083 300.812 184.625V163.375H289.375V148.562ZM332.052 136H348.436V200H332.052V136ZM340.372 127.808C337.3 127.808 334.783 126.869 332.82 124.992C330.857 123.029 329.876 120.64 329.876 117.824C329.876 115.008 330.857 112.661 332.82 110.784C334.783 108.821 337.3 107.84 340.372 107.84C343.273 107.84 345.705 108.821 347.668 110.784C349.716 112.661 350.74 115.008 350.74 117.824C350.74 120.64 349.716 123.029 347.668 124.992C345.705 126.869 343.273 127.808 340.372 127.808ZM368.424 136V118.08H385.064V136H399.144V150.464H385.064V176.448C385.064 179.776 385.747 182.123 387.112 183.488C388.563 184.853 390.355 185.579 392.488 185.664C394.707 185.749 396.925 185.621 399.144 185.28V199.36C395.219 200.213 391.379 200.469 387.624 200.128C383.955 199.787 380.669 198.805 377.768 197.184C374.867 195.477 372.563 192.917 370.856 189.504C369.235 186.091 368.424 181.739 368.424 176.448V150.464H359.336V136H368.424ZM396.992 110.4H469.696V124.864H442.048V200H424.768V124.864H396.992V110.4ZM485.282 200.896C479.053 200.896 473.506 199.573 468.642 196.928C463.778 194.197 459.938 190.4 457.122 185.536C454.391 180.587 453.026 174.784 453.026 168.128C453.026 161.387 454.434 155.541 457.25 150.592C460.151 145.643 464.077 141.845 469.026 139.2C473.975 136.469 479.522 135.104 485.666 135.104C491.81 135.104 497.357 136.469 502.306 139.2C507.255 141.845 511.181 145.643 514.082 150.592C516.983 155.456 518.434 161.216 518.434 167.872C518.434 174.613 516.941 180.459 513.954 185.408C511.053 190.357 507.085 194.197 502.05 196.928C497.101 199.573 491.511 200.896 485.282 200.896ZM485.154 186.176C487.799 186.176 490.317 185.536 492.706 184.256C495.095 182.891 497.058 180.885 498.594 178.24C500.13 175.509 500.898 172.053 500.898 167.872C500.898 163.861 500.173 160.533 498.722 157.888C497.271 155.157 495.351 153.152 492.962 151.872C490.658 150.507 488.141 149.824 485.41 149.824C482.765 149.824 480.29 150.507 477.986 151.872C475.767 153.152 473.975 155.157 472.61 157.888C471.33 160.533 470.69 163.947 470.69 168.128C470.69 172.139 471.33 175.509 472.61 178.24C473.89 180.885 475.639 182.891 477.858 184.256C480.077 185.536 482.509 186.176 485.154 186.176ZM556.32 200H539.552L520.608 136H537.504L548.128 179.264L559.392 136H575.776L586.656 179.264L597.152 136H613.92L594.976 200H577.824L567.2 159.808L556.32 200ZM623.076 136H637.924L639.076 142.528C641.124 140.224 643.599 138.432 646.5 137.152C649.487 135.787 652.687 135.104 656.1 135.104C661.135 135.104 665.401 136.171 668.9 138.304C672.484 140.437 675.215 143.552 677.092 147.648C679.055 151.659 680.036 156.651 680.036 162.624V200H663.524V164.8C663.524 159.851 662.543 156.139 660.58 153.664C658.617 151.189 655.673 149.952 651.748 149.952C647.737 149.952 644.665 151.232 642.532 153.792C640.484 156.267 639.46 159.979 639.46 164.928V200H623.076V136Z" fill="black"/>
<path d="M289.375 148.562V147.062H287.875V148.562H289.375ZM317.938 148.562H319.438V147.062H317.938V148.562ZM317.938 196.188L318.488 197.583L319.438 197.209V196.188H317.938ZM304.562 200L304.294 198.524L304.292 198.525L304.562 200ZM271.75 195.5L270.836 196.689L270.847 196.698L271.75 195.5ZM260.312 179.125L258.902 179.634L258.904 179.642L260.312 179.125ZM260.812 129.312L259.428 128.736L259.426 128.74L260.812 129.312ZM306.375 108.938L305.967 110.381L305.974 110.383L305.982 110.385L306.375 108.938ZM316.688 113.062L318.102 113.562L318.522 112.373L317.422 111.755L316.688 113.062ZM311.562 127.562L310.758 128.829L312.349 129.839L312.977 128.062L311.562 127.562ZM303.375 123.75L302.926 125.181L302.932 125.183L303.375 123.75ZM283.625 126.188L284.584 127.341L284.593 127.333L283.625 126.188ZM276.938 137.062L278.368 137.514L278.369 137.511L276.938 137.062ZM276.5 171.25L275.046 171.62L275.048 171.627L275.05 171.635L276.5 171.25ZM282.125 182.188L281.047 183.231L281.056 183.24L282.125 182.188ZM296.5 185.688L296.26 184.207L296.253 184.208L296.5 185.688ZM300.812 184.625L301.3 186.044L302.312 185.696V184.625H300.812ZM300.812 163.375H302.312V161.875H300.812V163.375ZM289.375 163.375H287.875V164.875H289.375V163.375ZM289.375 150.062H317.938V147.062H289.375V150.062ZM316.438 148.562V196.188H319.438V148.562H316.438ZM317.387 194.792C313.145 196.464 308.781 197.708 304.294 198.524L304.831 201.476C309.51 200.625 314.063 199.327 318.488 197.583L317.387 194.792ZM304.292 198.525C299.841 199.341 295.307 199.75 290.688 199.75V202.75C295.485 202.75 300.2 202.325 304.833 201.475L304.292 198.525ZM290.688 199.75C283.41 199.75 277.431 197.905 272.653 194.302L270.847 196.698C276.236 200.762 282.882 202.75 290.688 202.75V199.75ZM272.664 194.311C267.885 190.638 264.224 185.432 261.721 178.608L258.904 179.642C261.568 186.901 265.531 192.612 270.836 196.689L272.664 194.311ZM261.723 178.616C259.255 171.777 258 163.604 258 154.062H255C255 163.855 256.287 172.39 258.902 179.634L261.723 178.616ZM258 154.062C258 144.667 259.416 136.621 262.199 129.885L259.426 128.74C256.459 135.921 255 144.375 255 154.062H258ZM262.197 129.889C265.016 123.123 269.094 117.95 274.412 114.299L272.713 111.826C266.864 115.842 262.442 121.502 259.428 128.736L262.197 129.889ZM274.412 114.299C279.701 110.667 286.203 108.812 294 108.812V105.812C285.713 105.812 278.591 107.791 272.713 111.826L274.412 114.299ZM294 108.812C298.294 108.812 302.28 109.339 305.967 110.381L306.783 107.494C302.803 106.369 298.54 105.812 294 105.812V108.812ZM305.982 110.385C309.712 111.399 313.032 112.73 315.953 114.37L317.422 111.755C314.259 109.978 310.705 108.56 306.768 107.49L305.982 110.385ZM315.273 112.563L310.148 127.063L312.977 128.062L318.102 113.562L315.273 112.563ZM312.367 126.296C309.634 124.562 306.784 123.233 303.818 122.317L302.932 125.183C305.632 126.017 308.241 127.23 310.758 128.829L312.367 126.296ZM303.824 122.319C300.881 121.396 297.813 120.938 294.625 120.938V123.938C297.521 123.938 300.286 124.354 302.926 125.181L303.824 122.319ZM294.625 120.938C289.944 120.938 285.921 122.283 282.657 125.042L284.593 127.333C287.246 125.092 290.556 123.938 294.625 123.938V120.938ZM282.666 125.034C279.427 127.726 277.066 131.63 275.506 136.614L278.369 137.511C279.809 132.912 281.906 129.566 284.584 127.341L282.666 125.034ZM275.507 136.611C273.947 141.551 273.188 147.547 273.188 154.562H276.188C276.188 147.744 276.928 142.074 278.368 137.514L275.507 136.611ZM273.188 154.562C273.188 161.027 273.8 166.719 275.046 171.62L277.954 170.88C276.784 166.281 276.188 160.848 276.188 154.562H273.188ZM275.05 171.635C276.344 176.507 278.317 180.409 281.047 183.231L283.203 181.144C280.933 178.799 279.156 175.41 277.95 170.865L275.05 171.635ZM281.056 183.24C283.904 186.134 287.53 187.562 291.812 187.562V184.562C288.262 184.562 285.43 183.408 283.194 181.135L281.056 183.24ZM291.812 187.562C293.515 187.562 295.16 187.432 296.747 187.167L296.253 184.208C294.84 184.443 293.36 184.562 291.812 184.562V187.562ZM296.74 187.168C298.357 186.906 299.878 186.532 301.3 186.044L300.325 183.206C299.08 183.634 297.726 183.969 296.26 184.207L296.74 187.168ZM302.312 184.625V163.375H299.312V184.625H302.312ZM300.812 161.875H289.375V164.875H300.812V161.875ZM290.875 163.375V148.562H287.875V163.375H290.875ZM332.052 136V134.5H330.552V136H332.052ZM348.436 136H349.936V134.5H348.436V136ZM348.436 200V201.5H349.936V200H348.436ZM332.052 200H330.552V201.5H332.052V200ZM332.82 124.992L331.759 126.053L331.771 126.064L331.783 126.076L332.82 124.992ZM332.82 110.784L333.857 111.868L333.869 111.856L333.881 111.845L332.82 110.784ZM347.668 110.784L346.607 111.845L346.63 111.868L346.654 111.89L347.668 110.784ZM347.668 124.992L348.705 126.076L348.706 126.075L347.668 124.992ZM332.052 137.5H348.436V134.5H332.052V137.5ZM346.936 136V200H349.936V136H346.936ZM348.436 198.5H332.052V201.5H348.436V198.5ZM333.552 200V136H330.552V200H333.552ZM340.372 126.308C337.631 126.308 335.503 125.483 333.857 123.908L331.783 126.076C334.062 128.256 336.969 129.308 340.372 129.308V126.308ZM333.881 123.931C332.204 122.255 331.376 120.249 331.376 117.824H328.376C328.376 121.031 329.511 123.804 331.759 126.053L333.881 123.931ZM331.376 117.824C331.376 115.4 332.202 113.451 333.857 111.868L331.783 109.7C329.513 111.872 328.376 114.616 328.376 117.824H331.376ZM333.881 111.845C335.531 110.195 337.651 109.34 340.372 109.34V106.34C336.949 106.34 334.035 107.448 331.759 109.723L333.881 111.845ZM340.372 109.34C342.896 109.34 344.94 110.177 346.607 111.845L348.729 109.723C346.471 107.465 343.651 106.34 340.372 106.34V109.34ZM346.654 111.89C348.388 113.479 349.24 115.422 349.24 117.824H352.24C352.24 114.594 351.044 111.844 348.682 109.678L346.654 111.89ZM349.24 117.824C349.24 120.228 348.385 122.227 346.63 123.909L348.706 126.075C351.047 123.832 352.24 121.052 352.24 117.824H349.24ZM346.631 123.908C344.968 125.499 342.916 126.308 340.372 126.308V129.308C343.631 129.308 346.443 128.24 348.705 126.076L346.631 123.908ZM368.424 136V137.5H369.924V136H368.424ZM368.424 118.08V116.58H366.924V118.08H368.424ZM385.064 118.08H386.564V116.58H385.064V118.08ZM385.064 136H383.564V137.5H385.064V136ZM399.144 136H400.644V134.5H399.144V136ZM399.144 150.464V151.964H400.644V150.464H399.144ZM385.064 150.464V148.964H383.564V150.464H385.064ZM387.112 183.488L386.051 184.549L386.067 184.565L386.084 184.58L387.112 183.488ZM392.488 185.664L392.428 187.163L392.43 187.163L392.488 185.664ZM399.144 185.28H400.644V183.532L398.916 183.797L399.144 185.28ZM399.144 199.36L399.463 200.826L400.644 200.569V199.36H399.144ZM387.624 200.128L387.485 201.622L387.488 201.622L387.624 200.128ZM377.768 197.184L377.007 198.477L377.022 198.485L377.036 198.493L377.768 197.184ZM370.856 189.504L369.501 190.148L369.508 190.161L369.514 190.175L370.856 189.504ZM368.424 150.464H369.924V148.964H368.424V150.464ZM359.336 150.464H357.836V151.964H359.336V150.464ZM359.336 136V134.5H357.836V136H359.336ZM369.924 136V118.08H366.924V136H369.924ZM368.424 119.58H385.064V116.58H368.424V119.58ZM383.564 118.08V136H386.564V118.08H383.564ZM385.064 137.5H399.144V134.5H385.064V137.5ZM397.644 136V150.464H400.644V136H397.644ZM399.144 148.964H385.064V151.964H399.144V148.964ZM383.564 150.464V176.448H386.564V150.464H383.564ZM383.564 176.448C383.564 179.906 384.259 182.757 386.051 184.549L388.173 182.427C387.234 181.489 386.564 179.646 386.564 176.448H383.564ZM386.084 184.58C387.818 186.212 389.962 187.064 392.428 187.163L392.548 184.165C390.748 184.093 389.308 183.495 388.14 182.396L386.084 184.58ZM392.43 187.163C394.746 187.252 397.06 187.118 399.372 186.763L398.916 183.797C396.791 184.124 394.668 184.247 392.546 184.165L392.43 187.163ZM397.644 185.28V199.36H400.644V185.28H397.644ZM398.825 197.894C395.039 198.717 391.353 198.961 387.76 198.634L387.488 201.622C391.405 201.978 395.398 201.709 399.463 200.826L398.825 197.894ZM387.763 198.634C384.279 198.31 381.199 197.383 378.5 195.875L377.036 198.493C380.139 200.227 383.63 201.263 387.485 201.622L387.763 198.634ZM378.529 195.891C375.909 194.35 373.793 192.023 372.198 188.833L369.514 190.175C371.333 193.812 373.824 196.604 377.007 198.477L378.529 195.891ZM372.211 188.86C370.715 185.712 369.924 181.599 369.924 176.448H366.924C366.924 181.878 367.754 186.469 369.501 190.148L372.211 188.86ZM369.924 176.448V150.464H366.924V176.448H369.924ZM368.424 148.964H359.336V151.964H368.424V148.964ZM360.836 150.464V136H357.836V150.464H360.836ZM359.336 137.5H368.424V134.5H359.336V137.5ZM396.992 110.4V108.9H395.492V110.4H396.992ZM469.696 110.4H471.196V108.9H469.696V110.4ZM469.696 124.864V126.364H471.196V124.864H469.696ZM442.048 124.864V123.364H440.548V124.864H442.048ZM442.048 200V201.5H443.548V200H442.048ZM424.768 200H423.268V201.5H424.768V200ZM424.768 124.864H426.268V123.364H424.768V124.864ZM396.992 124.864H395.492V126.364H396.992V124.864ZM396.992 111.9H469.696V108.9H396.992V111.9ZM468.196 110.4V124.864H471.196V110.4H468.196ZM469.696 123.364H442.048V126.364H469.696V123.364ZM440.548 124.864V200H443.548V124.864H440.548ZM442.048 198.5H424.768V201.5H442.048V198.5ZM426.268 200V124.864H423.268V200H426.268ZM424.768 123.364H396.992V126.364H424.768V123.364ZM398.492 124.864V110.4H395.492V124.864H398.492ZM468.642 196.928L467.908 198.236L467.916 198.241L467.925 198.246L468.642 196.928ZM457.122 185.536L455.809 186.261L455.816 186.274L455.824 186.288L457.122 185.536ZM457.25 150.592L455.956 149.833L455.951 149.842L455.946 149.85L457.25 150.592ZM469.026 139.2L469.733 140.523L469.742 140.518L469.751 140.513L469.026 139.2ZM502.306 139.2L501.581 140.513L501.59 140.518L501.599 140.523L502.306 139.2ZM514.082 150.592L512.788 151.351L512.794 151.36L514.082 150.592ZM513.954 185.408L512.67 184.633L512.665 184.641L512.66 184.649L513.954 185.408ZM502.05 196.928L502.757 198.251L502.765 198.247L502.05 196.928ZM492.706 184.256L493.414 185.578L493.432 185.569L493.45 185.558L492.706 184.256ZM498.594 178.24L499.891 178.993L499.896 178.984L499.901 178.975L498.594 178.24ZM498.722 157.888L497.397 158.592L497.402 158.601L497.407 158.609L498.722 157.888ZM492.962 151.872L492.197 153.162L492.225 153.179L492.254 153.194L492.962 151.872ZM477.986 151.872L478.736 153.171L478.743 153.167L478.751 153.162L477.986 151.872ZM472.61 157.888L471.268 157.217L471.264 157.226L471.26 157.235L472.61 157.888ZM472.61 178.24L471.252 178.877L471.256 178.885L471.26 178.893L472.61 178.24ZM477.858 184.256L477.072 185.533L477.09 185.545L477.108 185.555L477.858 184.256ZM485.282 199.396C479.271 199.396 473.976 198.122 469.359 195.61L467.925 198.246C473.036 201.025 478.834 202.396 485.282 202.396V199.396ZM469.376 195.62C464.749 193.022 461.103 189.418 458.42 184.784L455.824 186.288C458.773 191.382 462.807 195.373 467.908 198.236L469.376 195.62ZM458.435 184.811C455.847 180.12 454.526 174.576 454.526 168.128H451.526C451.526 174.992 452.935 181.053 455.809 186.261L458.435 184.811ZM454.526 168.128C454.526 161.599 455.888 156.019 458.554 151.334L455.946 149.85C452.98 155.064 451.526 161.175 451.526 168.128H454.526ZM458.544 151.351C461.309 146.634 465.033 143.035 469.733 140.523L468.319 137.877C463.12 140.656 458.994 144.651 455.956 149.833L458.544 151.351ZM469.751 140.513C474.459 137.916 479.753 136.604 485.666 136.604V133.604C479.291 133.604 473.492 135.023 468.301 137.887L469.751 140.513ZM485.666 136.604C491.579 136.604 496.873 137.916 501.581 140.513L503.031 137.887C497.84 135.023 492.041 133.604 485.666 133.604V136.604ZM501.599 140.523C506.299 143.035 510.023 146.634 512.788 151.351L515.376 149.833C512.338 144.651 508.212 140.656 503.013 137.877L501.599 140.523ZM512.794 151.36C515.534 155.954 516.934 161.439 516.934 167.872H519.934C519.934 160.993 518.433 154.958 515.37 149.824L512.794 151.36ZM516.934 167.872C516.934 174.386 515.493 179.954 512.67 184.633L515.238 186.183C518.388 180.963 519.934 174.84 519.934 167.872H516.934ZM512.66 184.649C509.897 189.363 506.129 193.009 501.335 195.609L502.765 198.247C508.041 195.385 512.209 191.351 515.248 186.167L512.66 184.649ZM501.343 195.605C496.634 198.122 491.292 199.396 485.282 199.396V202.396C491.73 202.396 497.567 201.025 502.757 198.251L501.343 195.605ZM485.154 187.676C488.053 187.676 490.813 186.972 493.414 185.578L491.998 182.934C489.821 184.1 487.546 184.676 485.154 184.676V187.676ZM493.45 185.558C496.094 184.048 498.238 181.841 499.891 178.993L497.297 177.487C495.878 179.93 494.097 181.734 491.962 182.954L493.45 185.558ZM499.901 178.975C501.599 175.957 502.398 172.228 502.398 167.872H499.398C499.398 171.879 498.661 175.061 497.287 177.505L499.901 178.975ZM502.398 167.872C502.398 163.689 501.643 160.094 500.037 157.167L497.407 158.609C498.703 160.973 499.398 164.033 499.398 167.872H502.398ZM500.047 157.184C498.477 154.229 496.358 151.989 493.67 150.55L492.254 153.194C494.345 154.315 496.066 156.086 497.397 158.592L500.047 157.184ZM493.727 150.582C491.186 149.076 488.404 148.324 485.41 148.324V151.324C487.877 151.324 490.13 151.937 492.197 153.162L493.727 150.582ZM485.41 148.324C482.492 148.324 479.754 149.081 477.221 150.582L478.751 153.162C480.826 151.932 483.037 151.324 485.41 151.324V148.324ZM477.236 150.573C474.718 152.026 472.74 154.275 471.268 157.217L473.952 158.559C475.211 156.04 476.817 154.278 478.736 153.171L477.236 150.573ZM471.26 157.235C469.849 160.151 469.19 163.81 469.19 168.128H472.19C472.19 164.084 472.811 160.916 473.96 158.541L471.26 157.235ZM469.19 168.128C469.19 172.29 469.853 175.892 471.252 178.877L473.968 177.603C472.807 175.126 472.19 171.988 472.19 168.128H469.19ZM471.26 178.893C472.648 181.762 474.579 184 477.072 185.533L478.644 182.979C476.699 181.782 475.132 180.008 473.96 177.587L471.26 178.893ZM477.108 185.555C479.563 186.971 482.255 187.676 485.154 187.676V184.676C482.763 184.676 480.591 184.101 478.608 182.957L477.108 185.555ZM556.32 200V201.5H557.468L557.768 200.392L556.32 200ZM539.552 200L538.114 200.426L538.432 201.5H539.552V200ZM520.608 136V134.5H518.6L519.17 136.426L520.608 136ZM537.504 136L538.961 135.642L538.68 134.5H537.504V136ZM548.128 179.264L546.671 179.622L549.58 179.642L548.128 179.264ZM559.392 136V134.5H558.233L557.94 135.622L559.392 136ZM575.776 136L577.231 135.634L576.946 134.5H575.776V136ZM586.656 179.264L585.201 179.63L588.114 179.618L586.656 179.264ZM597.152 136V134.5H595.972L595.694 135.646L597.152 136ZM613.92 136L615.358 136.426L615.928 134.5H613.92V136ZM594.976 200V201.5H596.096L596.414 200.426L594.976 200ZM577.824 200L576.374 200.383L576.669 201.5H577.824V200ZM567.2 159.808L568.65 159.425L567.217 154.004L565.752 159.416L567.2 159.808ZM556.32 198.5H539.552V201.5H556.32V198.5ZM540.99 199.574L522.046 135.574L519.17 136.426L538.114 200.426L540.99 199.574ZM520.608 137.5H537.504V134.5H520.608V137.5ZM536.047 136.358L546.671 179.622L549.585 178.906L538.961 135.642L536.047 136.358ZM549.58 179.642L560.844 136.378L557.94 135.622L546.676 178.886L549.58 179.642ZM559.392 137.5H575.776V134.5H559.392V137.5ZM574.321 136.366L585.201 179.63L588.111 178.898L577.231 135.634L574.321 136.366ZM588.114 179.618L598.61 136.354L595.694 135.646L585.198 178.91L588.114 179.618ZM597.152 137.5H613.92V134.5H597.152V137.5ZM612.482 135.574L593.538 199.574L596.414 200.426L615.358 136.426L612.482 135.574ZM594.976 198.5H577.824V201.5H594.976V198.5ZM579.274 199.617L568.65 159.425L565.75 160.191L576.374 200.383L579.274 199.617ZM565.752 159.416L554.872 199.608L557.768 200.392L568.648 160.2L565.752 159.416ZM623.076 136V134.5H621.576V136H623.076ZM637.924 136L639.401 135.739L639.182 134.5H637.924V136ZM639.076 142.528L637.599 142.789L638.138 145.842L640.197 143.525L639.076 142.528ZM646.5 137.152L647.105 138.524L647.115 138.52L647.124 138.516L646.5 137.152ZM668.9 138.304L668.119 139.585L668.126 139.589L668.133 139.593L668.9 138.304ZM677.092 147.648L675.728 148.273L675.736 148.29L675.745 148.307L677.092 147.648ZM680.036 200V201.5H681.536V200H680.036ZM663.524 200H662.024V201.5H663.524V200ZM642.532 153.792L641.38 152.832L641.376 152.836L642.532 153.792ZM639.46 200V201.5H640.96V200H639.46ZM623.076 200H621.576V201.5H623.076V200ZM623.076 137.5H637.924V134.5H623.076V137.5ZM636.447 136.261L637.599 142.789L640.553 142.267L639.401 135.739L636.447 136.261ZM640.197 143.525C642.098 141.386 644.395 139.72 647.105 138.524L645.895 135.78C642.802 137.144 640.15 139.062 637.955 141.531L640.197 143.525ZM647.124 138.516C649.907 137.244 652.893 136.604 656.1 136.604V133.604C652.48 133.604 649.067 134.329 645.876 135.788L647.124 138.516ZM656.1 136.604C660.922 136.604 664.904 137.624 668.119 139.585L669.681 137.023C665.899 134.717 661.347 133.604 656.1 133.604V136.604ZM668.133 139.593C671.434 141.558 673.967 144.43 675.728 148.273L678.456 147.023C676.462 142.674 673.534 139.317 669.667 137.015L668.133 139.593ZM675.745 148.307C677.579 152.056 678.536 156.806 678.536 162.624H681.536C681.536 156.496 680.53 151.262 678.439 146.989L675.745 148.307ZM678.536 162.624V200H681.536V162.624H678.536ZM680.036 198.5H663.524V201.5H680.036V198.5ZM665.024 200V164.8H662.024V200H665.024ZM665.024 164.8C665.024 159.693 664.018 155.585 661.755 152.732L659.405 154.596C661.067 156.692 662.024 160.009 662.024 164.8H665.024ZM661.755 152.732C659.44 149.812 656.009 148.452 651.748 148.452V151.452C655.338 151.452 657.795 152.566 659.405 154.596L661.755 152.732ZM651.748 148.452C647.392 148.452 643.856 149.86 641.38 152.832L643.684 154.752C645.474 152.604 648.083 151.452 651.748 151.452V148.452ZM641.376 152.836C639.013 155.691 637.96 159.809 637.96 164.928H640.96C640.96 160.148 641.955 156.842 643.688 154.748L641.376 152.836ZM637.96 164.928V200H640.96V164.928H637.96ZM639.46 198.5H623.076V201.5H639.46V198.5ZM624.576 200V136H621.576V200H624.576Z" fill="black"/>
<path d="M98.5191 248.15C83.9873 242.875 74.9335 234.814 68.4628 221.178C65.3784 214.711 65.3784 214.711 64.8804 182.662C64.3824 152.108 64.2828 150.518 62.2941 147.828C59.3094 143.848 54.9302 141.557 48.7583 140.863C41.5936 140.066 40 138.476 40 132.005C40 128.622 40.498 126.232 41.494 125.239C44.9767 121.756 53.735 122.254 63.5889 126.633C69.9601 129.419 76.2283 135.79 79.4123 142.855C82.2974 149.027 82.2974 149.027 82.7954 180.873C83.393 216.703 83.393 216.802 90.9561 224.365C95.5344 229.043 102.101 232.526 107.975 233.622C111.657 234.319 111.657 234.319 111.657 220.684C111.657 207.048 111.657 207.048 108.771 207.745C105.089 208.542 101.906 206.948 100.611 203.466C99.0171 199.385 100.312 196.6 105.986 192.221C116.733 183.761 148.482 154.801 148.482 153.307C148.482 152.41 147.188 152.111 136.042 150.023C131.663 149.226 125.69 147.337 122.606 145.843C116.434 142.858 106.783 133.602 104.791 128.825C103.994 127.032 102.998 125.641 102.503 125.641C102.005 125.641 97.626 126.836 92.7489 128.326C83.1938 131.212 80.8067 130.714 80.8067 126.235C80.8067 122.951 82.3007 121.955 91.3578 119.568C98.8212 117.576 99.7177 117.082 99.7177 114.99C99.7177 112.802 99.5185 112.702 90.9594 112.702C81.7031 112.702 79.814 111.906 79.814 108.124C79.814 104.741 81.806 103.844 90.7602 103.546C99.2197 103.247 99.2197 103.247 99.8173 98.2701C100.614 91.9986 102.105 88.217 105.392 83.9375C107.779 80.8532 108.078 79.5584 108.177 70.9993C108.476 55.3752 111.062 50 118.131 50C122.012 50.0996 128.977 53.1839 133.257 56.9655C137.038 60.3486 137.735 60.4482 145.996 58.4595C153.758 56.567 161.819 56.567 170.478 58.5591C177.344 60.1527 177.344 60.1527 182.221 56.567C192.174 49.2032 198.542 48.2072 203.22 52.9847C206.205 56.069 206.205 56.069 206.205 68.2104C206.205 80.1526 206.304 80.4515 209.688 87.3206C211.68 91.2018 213.569 96.2781 213.967 98.7648C214.664 103.244 214.664 103.244 223.124 103.742C231.185 104.24 231.583 104.339 232.48 106.925C234.173 111.703 231.982 112.898 222.227 112.5C213.668 112.201 213.668 112.201 213.668 114.688C213.668 116.779 214.365 117.374 217.649 118.37C228.794 121.653 230.488 122.251 231.484 123.944C232.878 126.132 231.185 129.02 228.3 129.419C227.204 129.618 223.223 128.821 219.641 127.726C215.959 126.53 212.377 125.634 211.779 125.634C211.082 125.634 209.093 127.822 207.3 130.511C203.22 136.882 196.055 143.25 189.784 146.135C187.098 147.33 180.826 149.12 175.85 150.016C170.972 150.913 166.494 152.108 165.896 152.603C165.299 153.2 166.295 154.89 168.881 157.181C171.069 159.173 175.448 163.253 178.536 166.138C181.62 169.024 184.608 171.414 185.202 171.414C185.899 171.414 186.298 168.629 186.298 164.05C186.298 155.192 187.095 154.296 194.458 154.694C199.734 154.993 199.734 154.993 199.834 169.326C199.933 183.559 199.933 183.559 207.496 190.723C211.676 194.605 215.5 196 215.159 199.581C214.818 203.163 214.077 203.5 213.565 204.458C213.054 205.417 210.182 207.842 204.209 206.152C202.915 205.853 202.715 207.845 202.417 219.488C202.217 230.335 202.225 233.411 202.225 233.411V250.939C202.225 250.939 202.225 250.939 155.939 250.939C109.654 250.939 106.178 250.939 98.5158 248.154L98.5191 248.15ZM187.294 214.412C187.294 194.707 187.294 194.707 180.129 187.739C165.299 173.506 159.528 168.433 158.134 168.433C156.739 168.433 152.46 172.015 135.342 187.639C127.579 194.704 127.579 194.704 127.579 213.715C127.579 224.266 128.257 228.286 131.54 231.274C134.824 234.263 142.012 234.116 158.134 234.116C187.294 234.116 187.294 234.116 187.294 214.412ZM185.5 131.5C185.5 131.5 195.542 127.5 195 113C194.458 98.5 187 95.0862 187 95.0862C187 95.0862 186.778 93.0868 157.639 93.2934C128.5 93.5 130.667 93.4926 127.782 95.0862C116.039 101.457 118.028 125.541 130.767 132.008C133.652 133.403 137.234 133.602 157.639 133.403C181.125 133.104 185.5 131.5 185.5 131.5Z" fill="black"/>
<path d="M164 210C159 210 158.999 210.001 159 205C159.001 199.999 158.999 200.001 164 200C169 200 169 200 169 205C169 210 168.999 210 164 210Z" fill="black"/>
<path d="M151 210C146 210 145.999 210.001 146 205C146.001 199.999 145.999 200.001 151 200C156 200 156 200 156 205C156 210 155.999 210 151 210Z" fill="black"/>
<path d="M164 197C159 197 158.999 197.001 159 192C159.001 186.999 158.999 187.001 164 187C169 187 169 187 169 192C169 197 168.999 197 164 197Z" fill="black"/>
<path d="M151 197C146 197 145.999 197.001 146 192C146.001 186.999 145.999 187.001 151 187C156 187 156 187 156 192C156 197 155.999 197 151 197Z" fill="black"/>
<path d="M152.713 123.75C150.713 122.75 147.767 117.988 152.713 116.75C156.713 115.75 157.713 115.75 161.713 116.75C166.713 117.75 163.713 122.75 161.713 123.668C159.713 124.75 154.713 124.75 152.713 123.75Z" fill="black"/>
<path d="M171.5 117.501C169.499 113.502 169.501 108.501 171.5 104.501C172.639 102.5 177.501 102.5 178.501 104.5C180.501 108.5 180.502 113.5 178.501 117.501C177.501 119.5 172.501 119.5 171.5 117.501Z" fill="black"/>
<path d="M134.999 118.001C132.998 114.002 133 109.001 134.999 105.001C136.138 103 141 103 142 105C144 109 144.001 114 142 118.001C141 120 136 120 134.999 118.001Z" fill="black"/>
<rect x="202" y="234" width="480" height="17" fill="black"/>
</svg>
