<?xml version="1.0" encoding="utf-8"?>
<!DOCTYPE svg PUBLIC "-//W3C//DTD SVG 1.0//EN" "http://www.w3.org/TR/2001/REC-SVG-20010904/DTD/svg10.dtd">
<svg version="1.0" xmlns="http://www.w3.org/2000/svg" width="2560px" height="587px" viewBox="0 0 2560 587" preserveAspectRatio="xMidYMid meet">
 <g fill="#fefefe">
  <path d="M0 516.5 c0 -64.6 0.1 -70.5 1.6 -70.5 0.9 0 2.7 1.1 4 2.5 l2.3 2.5 41.5 0 41.4 0 2.6 -3.1 2.6 -3.1 0 -108.9 0 -108.9 3.3 0 3.3 0 14.2 27.8 c7.8 15.2 20.1 39.2 27.3 53.2 15.3 30 35.7 69.9 51.2 100 18.5 36.1 21.6 41.7 25.2 44.8 6.6 5.8 15.6 5.2 22.2 -1.6 2.5 -2.6 14.7 -25.5 40.8 -76.7 20.4 -40.1 45.6 -89.5 55.9 -109.7 l18.7 -36.8 3.5 0 3.4 0 0 109 0 109.1 2.5 2.4 2.4 2.5 41.4 0 41.4 0 2.1 -2.3 2.2 -2.3 0 -216.3 0 -216.3 -2.9 -2.9 -2.9 -2.9 -38.7 0 c-35.9 0 -38.8 0.1 -42.3 1.9 -2 1 -4.4 2.7 -5.3 3.7 -1 1.1 -10.3 20.1 -20.8 42.4 -10.6 22.3 -39.6 83.5 -64.4 136 l-45.3 95.5 -3.4 0.3 -3.5 0.3 -7.2 -15.3 c-4 -8.4 -13.1 -27.7 -20.4 -42.8 -7.2 -15.1 -27.8 -58.5 -45.9 -96.5 -18 -37.9 -38 -80 -44.4 -93.5 -6.5 -13.4 -12.5 -25.3 -13.4 -26.4 -0.9 -1 -3.5 -2.7 -5.7 -3.7 -3.7 -1.7 -7.3 -1.9 -42.3 -1.9 -37.2 0 -38.5 0.1 -41.3 2.1 -1.6 1.1 -2.9 2.7 -2.9 3.5 0 0.8 -0.9 1.4 -2 1.4 -1.8 0 -2 -0.7 -2 -7.5 l0 -7.5 704 0 c703.3 0 704 0 704 2 0 1.6 -0.7 2 -3.5 2 -10.8 0 -42.7 7.4 -58.6 13.5 -32.5 12.7 -61.8 31.5 -85.3 55.1 -33.4 33.3 -54 73.1 -62.8 120.9 -3 16.3 -3.3 53.2 -0.5 70 12.5 75.3 58.5 136.7 127.2 170 48.1 23.3 92.1 28 157 16.9 46.6 -8 88.8 -24.1 105.8 -40.5 l4.7 -4.5 0 -82.7 c0 -58.4 -0.3 -83.3 -1.1 -85 -0.6 -1.4 -2.2 -3 -3.6 -3.6 -1.7 -0.8 -23.3 -1.1 -72.8 -1.1 l-70.4 0 -2.8 2.4 -2.8 2.4 -0.3 24.6 c-0.3 28.4 0.1 30.8 6.7 32.6 2 0.5 14.1 1 26.9 1 l23.2 0 0 31.6 0 31.5 -6.5 3 c-32.3 14.6 -76.5 18.1 -107.5 8.4 -21.2 -6.7 -43.1 -21.8 -58 -40 -17.7 -21.6 -29.1 -46.5 -33.6 -73.5 -2.5 -14.6 -2.2 -42.3 0.5 -57.3 10.8 -59.5 53.1 -104.8 106.9 -114.2 11.6 -2 35.1 -2 47.3 0.1 26.7 4.6 52.8 18.1 73.1 37.9 4.3 4.2 9.7 10.1 12 13.1 2.2 3 4.8 5.4 5.8 5.4 2.6 0 57.5 -55.5 57.5 -58.1 0 -4.3 -22.9 -26.8 -38.5 -38 -19.2 -13.7 -38 -23.2 -61 -30.9 -14.3 -4.7 -37.4 -9.6 -50.2 -10.6 -7.7 -0.6 -8.8 -0.9 -8.8 -2.5 0 -1.9 14.5 -1.9 563 -1.9 l563 0 0 195.5 0 195.5 -20 0 -20 0 0.2 29.8 0.3 29.7 19.8 0.3 19.7 0.2 0 68 0 68 -297 0 c-263.3 0 -297 -0.2 -297 -1.5 0 -0.8 0.5 -1.5 1 -1.5 2.6 0 11.7 -9.1 12.6 -12.5 1.4 -5.7 -4.2 -11.1 -14.5 -14.1 -8.6 -2.5 -13.1 -4.6 -14.2 -6.5 -0.5 -1 -0.9 -3.8 -0.9 -6.3 0 -6.2 2.2 -7.6 12.2 -7.6 4.2 0 8.8 0.4 10.2 1 3.9 1.4 3.1 -0.4 -0.9 -2.3 -6.5 -3.1 -10.4 -3.1 -16.5 0 -6.1 3.1 -9.6 7.8 -8.6 11.7 1.4 5.6 7.3 9.2 20.8 13 7.6 2.2 8.8 3.5 8.8 10.1 0 4.6 -0.4 5.6 -2.6 7.4 -3.8 3 -17.7 3 -23.4 0.1 -2.2 -1.1 -4 -1.6 -4 -1.2 0 0.5 2.1 2 4.8 3.3 2.6 1.3 4.9 2.7 5 3.2 0.2 0.4 1 0.7 1.8 0.7 0.8 0 1.4 0.7 1.4 1.5 0 1.3 -7.1 1.5 -57.5 1.5 -50.4 0 -57.5 -0.2 -57.5 -1.5 0 -0.8 0.5 -1.5 1 -1.5 0.6 0 1.6 -0.5 2.3 -1.1 0.7 -0.6 3 -2 5.1 -3.2 2.2 -1.2 4.1 -2.8 4.4 -3.5 0.4 -1.2 0.1 -1.2 -1.8 0 -1.2 0.7 -3.2 1.9 -4.4 2.5 -1.2 0.7 -5.7 1.3 -10.5 1.3 -7.1 0 -9 -0.4 -11.7 -2.2 -4.6 -3.1 -7.4 -8.6 -7.4 -14.2 l0 -4.6 19.8 -0.2 19.7 -0.3 0.3 -2.6 c0.5 -4.2 -3.6 -13.5 -7.3 -16.8 -1.9 -1.6 -5.8 -3.7 -8.8 -4.7 -5.1 -1.6 -5.7 -1.6 -10.7 0.1 -12.9 4.3 -20.9 18.8 -16.8 30.6 1.9 5.7 5.6 10.8 10.1 13.9 2.3 1.6 4.7 3.4 5.4 4 0.7 0.5 1.7 1 2.3 1 0.5 0 1 0.7 1 1.5 0 1.3 -102.7 1.5 -918 1.5 l-918 0 0 -70.5z m1607.7 55.7 l3.8 -9.2 23.3 0.2 23.4 0.3 2.4 6 c4.3 10.5 6.6 14.8 7.4 13.5 0.6 -1 -31.5 -79.9 -33.2 -81.5 -0.3 -0.3 -3.7 7.2 -7.6 16.7 -3.9 9.5 -11.3 27.6 -16.6 40.1 -5.2 12.6 -9.2 23.6 -8.9 24.4 0.8 2 1.4 1 6 -10.5z m87.3 -10.5 c0 -10.8 0.4 -18.6 1.1 -19.9 1.7 -3.1 7.1 -4.8 15.1 -4.8 12.1 0.1 12.8 1.5 12.8 25.8 0.1 13 0.4 18.2 1.4 19.4 2.6 3.5 3.6 -2.3 3.6 -21.1 0 -16.6 0.1 -17.9 2.1 -20 3 -3.2 6.1 -4.1 13.9 -4.1 5.8 0 7.3 0.4 9.7 2.4 l2.8 2.4 0.3 19.3 c0.2 14.3 0.7 19.7 1.7 21.2 1.3 1.9 1.4 1.9 2.2 -0.9 1 -3.7 1 -29.8 0 -34.7 -1.8 -8.5 -12.6 -15.2 -20.7 -12.8 -2 0.6 -5.4 2.2 -7.4 3.6 -4.7 3.2 -8 3.2 -11.8 0 -4.6 -3.9 -9.8 -4.9 -15 -2.9 -6.1 2.4 -12.8 3 -13.9 1.3 -2.1 -3.3 -2.9 2.4 -2.9 22.3 0 13.9 0.4 21.6 1.2 23.3 l1.2 2.6 1.3 -2.3 c0.9 -1.6 1.2 -7.6 1.3 -20.1z m98 -2.9 c0 -21.2 -0.3 -23.8 -2.5 -23.8 -2.2 0 -2.5 2.6 -2.5 24.1 0 14.8 0.4 21.5 1.2 22.9 1.2 1.9 1.3 1.9 2.5 -0.3 0.9 -1.5 1.2 -8.4 1.3 -22.9z m131 6.2 c0 -17.5 -0.8 -21.1 -5.7 -26.2 -3.4 -3.5 -11.2 -6.2 -15.5 -5.3 -1.8 0.4 -5 1.6 -7 2.6 -4.5 2.3 -9.4 2.5 -10.2 0.4 -0.3 -0.8 -1 -1.5 -1.6 -1.5 -0.6 0 -1 8 -1 23.6 0 21.9 0.1 23.5 1.8 23.2 1.5 -0.3 1.8 -2.3 2.2 -19.4 0.4 -14.5 0.8 -19.5 1.9 -20.8 2.8 -3.4 6.8 -4.6 15.1 -4.6 8.5 0 13.1 1.5 14.5 4.7 0.5 1 1.1 10.8 1.5 21.8 0.4 11 0.8 20.1 0.9 20.3 0 0.2 0.8 -0.3 1.6 -1.2 1.2 -1.2 1.5 -4.6 1.5 -17.6z m461.5 14.5 c2.5 -2.4 2.5 -2.6 2.5 -20.4 0 -9.9 -0.3 -18.7 -0.6 -19.6 -1.8 -4.7 5 -4.5 -175.7 -4.5 l-169.4 0 -2.7 2.5 -2.6 2.4 0 18.6 c0 18.4 0 18.6 2.5 21 l2.4 2.5 170.6 0 170.6 0 2.4 -2.5z m-593.7 -71.8 c0.2 -1 -0.3 -1.7 -1.2 -1.7 -1.8 0 -2.9 1.6 -2.1 3.1 0.9 1.4 2.9 0.6 3.3 -1.4z m183.3 -59.5 l2.9 -3.2 0 -33.6 c0 -37 -0.2 -38.2 -6.1 -40.3 -2.3 -0.8 -30.7 -1.1 -96 -1.1 l-92.9 0 0 -48.5 0 -48.5 62.6 0 62.6 0 2.9 -2.9 2.9 -2.9 0 -34.7 0 -34.7 -2.9 -2.9 -2.9 -2.9 -62.6 0 -62.6 0 0 -51.5 0 -51.5 94.3 0 94.4 0 2.4 -2.6 2.4 -2.6 0.3 -33.6 c0.2 -24.1 -0.1 -34.4 -0.9 -36.4 -2.5 -6.1 5.9 -5.8 -142.4 -5.8 -146.1 0 -139.7 -0.2 -142.5 4.9 -1.5 2.9 -1.4 430.5 0.1 433.4 1.3 2.3 3.2 3.8 6.4 4.9 1.1 0.3 63.3 0.5 138.3 0.5 l136.4 -0.2 2.9 -3.3z m-1320.7 -0.3 l2.6 -3.1 0 -214.4 c0 -234.7 0.4 -219.2 -5.6 -221.4 -1.5 -0.6 -18.9 -1 -41.1 -1 -41.9 0 -42.7 0.1 -45.2 5.7 -0.8 1.7 -1.1 64.5 -1.1 215.9 0 229.5 -0.3 217.4 4.7 220.3 1.2 0.7 16.7 1.1 42.5 1.1 l40.6 0 2.6 -3.1z m168.3 0.9 c1.1 -1.3 4.7 -8.6 8 -16.3 3.3 -7.7 20.3 -47.3 37.8 -88 17.5 -40.7 41.6 -96.7 53.5 -124.5 l21.7 -50.5 3.4 -0.3 3.4 -0.3 6.6 15.3 c10.8 24.8 71 163.8 84.9 195.8 25.4 58.7 29.3 67.5 30.8 69.3 1.4 1.6 4.7 1.7 42 1.7 40.3 0 40.6 0 42.9 -2.2 1.3 -1.2 2.3 -2.8 2.3 -3.6 0 -1.3 -16 -38.8 -42.2 -99.2 -10.4 -23.9 -27.9 -64.3 -36.8 -85 -2.7 -6.3 -13.7 -31.8 -42 -97 -7.3 -16.8 -19.4 -44.9 -27 -62.5 -7.6 -17.6 -19.3 -44.6 -26 -60 -6.7 -15.4 -12.4 -28.6 -12.7 -29.3 -0.3 -0.7 -1.8 -1.9 -3.4 -2.7 -4.1 -2.2 -40.7 -2.2 -44.8 0 -2.4 1.2 -4.5 5.3 -13.9 27.2 -6.1 14.2 -19.2 44.5 -29 67.3 -9.9 22.8 -32.9 76.1 -51.2 118.5 -18.3 42.4 -37.4 86.7 -42.5 98.5 -5.1 11.8 -15 34.8 -22 51 -7 16.2 -15 34.7 -17.7 41 -13.4 30.8 -13.9 32 -12.8 34 0.6 1 1.8 2.4 2.8 2.9 1.1 0.7 16.6 1.1 41.8 1.1 l40.1 0 2 -2.2z m1241.3 1.1 c14.3 -3.1 24.3 -19.8 21.1 -35.3 -2.3 -11.3 -8.9 -19.3 -18.3 -22.1 -3.4 -1 -9.3 -1.5 -17.5 -1.5 l-12.3 0 0 29.3 c0 16.2 0.3 29.7 0.7 30 1 1.1 20.8 0.8 26.3 -0.4z m78.8 -2.6 l0.3 -3.3 -14.5 0 -14.6 0 0 -9.5 0 -9.5 9.5 0 c9.3 0 9.5 0 10.1 -2.6 0.4 -1.4 0.3 -2.9 -0.2 -3.4 -0.5 -0.5 -5 -1 -9.9 -1.2 l-9 -0.3 -0.3 -9.7 -0.3 -9.8 13 0 c7.1 0 13.6 -0.3 14.5 -0.6 1 -0.4 1.6 -1.8 1.6 -3.5 l0 -2.9 -18.5 0 -18.5 0 0 30 0 30 18.3 -0.2 18.2 -0.3 0.3 -3.2z m52 -9.5 l0.3 -12.7 9.7 -0.3 9.7 -0.3 0 -3 0 -3 -9.7 -0.3 -9.8 -0.3 0 -10.3 0 -10.4 13.8 0.2 13.7 0.1 0.3 -3.3 0.3 -3.2 -18.3 0.2 -18.3 0.3 -0.3 28.5 c-0.1 15.7 0 29.1 0.3 29.8 0.3 0.9 1.8 1.2 4.2 1 l3.8 -0.3 0.3 -12.7z m55 1 l0.3 -11.8 8.2 0 8.2 0 6.1 11.8 c5.3 9.9 6.6 11.7 8.8 12 1.4 0.2 2.6 0 2.6 -0.5 0 -0.4 -2.1 -4.6 -4.5 -9.2 -5.6 -10.4 -5.8 -13.6 -0.9 -17.5 4.2 -3.3 7.4 -9.6 7.4 -14.6 0 -7 -6.4 -16.1 -12.3 -17.5 -1.2 -0.3 -8.9 -0.4 -17.2 -0.3 l-15 0.3 -0.3 28.5 c-0.1 15.7 0 29.1 0.3 29.8 0.3 0.9 1.8 1.2 4.2 1 l3.8 -0.3 0.3 -11.7z m62.8 7.7 l1.7 -4.5 17.3 0 17.3 0 2 4.5 c1.7 3.9 2.4 4.5 5 4.5 l2.9 0 -11.9 -27.7 c-13.4 -30.7 -14.8 -33.7 -15.6 -32.9 -0.6 0.5 -26.3 59.6 -26.3 60.3 0 0.2 1.3 0.3 2.9 0.3 2.6 0 3.2 -0.6 4.7 -4.5z m75.2 -15.2 l0.2 -19.3 3.5 0 c3.3 0 3.7 0.5 16.2 19 12.6 18.7 14.9 21.1 18.8 19.6 1.3 -0.5 1.5 -4.7 1.5 -30.1 l0 -29.6 -4.2 0.3 -4.3 0.3 -0.3 18.8 -0.2 18.7 -3.3 0 c-3 -0.1 -3.9 -1 -15.8 -18.8 l-12.6 -18.7 -3.9 0 -3.9 0 -0.3 28.5 c-0.1 15.7 0 29.1 0.3 29.8 0.3 0.9 1.8 1.2 4.2 1 l3.8 -0.3 0.3 -19.2z m101.4 16.7 c2.6 -1.3 5.7 -3.4 6.9 -4.6 1.8 -2 2 -2.6 0.9 -3.9 -1.2 -1.4 -1.5 -1.4 -3.4 0.3 -4.7 4.3 -12 5.9 -21.4 4.7 -5.1 -0.6 -6.2 -1.2 -10.4 -5.5 -3.8 -3.9 -4.8 -5.9 -5.8 -10.6 -2.6 -12.6 1.2 -24.4 9.5 -29.1 3.2 -1.8 5.6 -2.3 11.8 -2.3 7.7 0 11.9 1.2 15.8 4.6 1.4 1.2 1.8 1.2 3.2 -0.4 1.6 -1.8 1.6 -2 0 -3.5 -4.1 -3.6 -12.7 -7 -18.2 -7.1 -11.6 -0.2 -24.7 9.3 -29.1 21 -2.6 7.1 -2.5 11.6 0.4 18.6 3.7 9.1 10.7 15.9 20 19.5 4.8 1.9 14.3 1.1 19.8 -1.7z m-420 -113.2 c6.8 -2.9 12.3 -9.5 14.8 -17.6 2.3 -7.5 2.5 -10.9 0.6 -17.7 -2.5 -9.7 -7.4 -15.7 -15.6 -19.4 -3.8 -1.7 -6.6 -2.1 -18.2 -2.1 l-13.8 0 0 29.4 c0 22.6 0.3 29.6 1.3 30 0.6 0.3 6.8 0.3 13.7 0 9.4 -0.4 13.6 -1 17.2 -2.6z m72.2 2.6 c1 -0.4 1.6 -1.8 1.6 -3.5 l0 -2.8 -14.2 -0.3 -14.3 -0.3 0 -9.5 0 -9.5 9.5 -0.5 c9.1 -0.5 9.5 -0.6 9.8 -2.9 0.5 -3.4 -1.2 -4.1 -11.1 -4.1 l-8.8 0 0.3 -9.7 0.3 -9.8 14.3 -0.3 14.2 -0.3 0 -2.9 0 -3 -18.5 0 -18.5 0 0 29.3 c0 16.2 0.3 29.7 0.7 30 0.8 0.9 32.6 0.9 34.7 0.1z m53.2 -2.2 c5 -2.5 8.8 -6.9 10.4 -11.7 1 -3 0.9 -4.1 -0.7 -7.2 -2.7 -5.5 -8.3 -8.8 -20.6 -12.1 -13 -3.5 -14.7 -4.8 -14.7 -11.3 0 -4.1 0.4 -5.1 2.5 -6.5 4.6 -3 16 -3 26 0.1 1.4 0.4 2.4 -0.1 3.3 -1.5 1.2 -1.9 0.9 -2.2 -4.3 -4.6 -7.6 -3.5 -15.2 -4.2 -21.1 -1.9 -9 3.4 -15.6 12 -13.8 17.7 2.2 7.2 8.6 11.3 23.3 14.8 10.5 2.6 13.1 4.4 13.1 9.3 -0.1 8.1 -5.4 11.2 -18 10.4 -4.1 -0.3 -8.7 -1.1 -10.2 -1.8 -2.4 -1 -3.1 -1 -4.8 0.6 -2 1.8 -2 1.8 0.2 3.4 7.7 5.3 21.4 6.4 29.4 2.3z m63.2 -13.5 l0.3 -15.8 3.6 0.3 c3.5 0.3 3.7 0.5 11.4 15.2 l7.7 14.9 7.6 -15.1 7.6 -15.2 3.5 0 3.5 0 0 15.5 0 15.5 2.5 0.6 c5.6 1.4 5.5 2 5.5 -30.1 l0 -29.6 -4.1 0.3 -4.2 0.3 -9.2 19.5 -9.2 19.5 -3.5 0.3 -3.5 0.3 -9.4 -20 -9.4 -20.1 -4.2 0 -4.3 0 0 29.3 c0 16.2 0.3 29.7 0.7 30.1 0.4 0.4 2.1 0.6 3.8 0.4 l3 -0.3 0.3 -15.8z m84 -13.9 l0.2 -29.8 -4 0 -4 0 0 29.4 c0 31.4 -0.1 30.7 5 30.3 l2.5 -0.2 0.3 -29.7z m28.4 25.7 l2.2 -4.5 17.1 0 17.1 0 2.2 4.5 c1.7 3.6 2.7 4.5 4.8 4.5 3.1 0 3.1 -0.1 -3.7 -15.5 -2.6 -6 -8.1 -18.6 -12.1 -27.9 -4 -9.2 -7.8 -16.8 -8.3 -16.8 -0.9 0 -26.5 57.4 -26.5 59.4 0 0.4 1.1 0.8 2.5 0.8 2 0 3 -0.9 4.7 -4.5z m98.9 3.5 c2.9 -0.6 7.3 -2 9.6 -3.1 l4.3 -2.1 0 -10.3 0 -10.2 -3.1 -0.7 c-4.5 -0.9 -11.2 -0.7 -12.8 0.3 -2.5 1.6 -0.4 4.1 3.4 4.1 l3.5 0 0 7 c0 8.7 -1 9.4 -13.2 9.4 -8 0.1 -8.9 -0.1 -12.9 -2.9 -2.3 -1.6 -5.3 -5 -6.6 -7.5 -2.2 -4 -2.4 -5.5 -2.1 -14.6 0.3 -9 0.6 -10.5 3.1 -14.2 3.1 -4.8 8.2 -7.7 14.9 -8.7 5.7 -0.9 13.7 0.9 17.4 3.8 2 1.5 3 1.8 4.3 1 2.9 -1.8 1.7 -3.6 -4.9 -7.2 -5.6 -3.1 -7.4 -3.6 -13 -3.6 -15.7 0.1 -30.4 14.6 -30.4 30 0 12.5 9.8 25 22.7 29.1 5.2 1.6 8.9 1.7 15.8 0.4z m72.5 -1.4 c0.3 -1.4 0.3 -3 -0.1 -3.5 -0.4 -0.7 -5.8 -1.1 -14.6 -1.1 l-13.9 0 0 -10 0 -10 9.6 0 9.5 0 -0.3 -3.2 -0.3 -3.3 -9.2 -0.3 -9.3 -0.3 0 -9.9 0 -10 14 0 14 0 0 -3 0 -3 -18.2 0.2 -18.3 0.3 -0.3 28.4 c-0.2 20.1 0.1 28.8 0.9 29.7 0.9 1.1 5 1.4 18.5 1.4 l17.4 0 0.6 -2.4z m-349.9 -113.5 c4.8 -2.4 7.8 -5.6 9.8 -10.5 1.9 -4.6 1.4 -7.3 -2.1 -11.6 -3.6 -4.2 -8.4 -6.5 -20.1 -9.5 -10.8 -2.8 -13.3 -4.6 -13.3 -10 0 -4.7 0.8 -6.4 4.1 -8 3.6 -1.9 16.4 -2 21.7 -0.1 3.7 1.3 4.2 1.3 5.6 -0.3 0.9 -1 1.6 -2 1.6 -2.3 0 -1.5 -11.3 -5.1 -17.2 -5.6 -5.9 -0.4 -7.4 -0.1 -12.3 2.3 -8.7 4.2 -13.2 12.4 -10.1 18.4 3.4 6.5 9 9.8 21.6 12.7 9.6 2.1 12.8 3.8 13.6 7.1 1.1 4.4 -0.7 9.6 -4.1 11.3 -3.7 1.9 -17.4 1.9 -22.8 0.1 -3 -1 -4.1 -1 -5.2 -0.1 -2.2 1.8 -1.8 2.8 1.8 4.6 9 4.8 19.9 5.4 27.4 1.5z m187.9 1.4 c3 -0.9 6.2 -2.8 8.1 -4.7 5.4 -5.8 6.3 -10.3 6.3 -33.9 l0 -21 -3.7 0.3 -3.8 0.3 -0.5 23 c-0.5 23.2 -0.7 24.2 -4.3 28.3 -1.8 1.9 -3 2.2 -10.2 2.2 -13.5 0 -14.4 -2.1 -14.5 -33.2 l0 -20.8 -4.1 0 -4.1 0 0.4 22.3 c0.3 22.1 0.3 22.2 3.1 27.2 5.4 9.8 15.5 13.5 27.3 10z m-334.6 -11 l0 -11.5 8.5 0 8.4 0 5.8 11.3 c5.1 9.8 6.1 11.2 8.6 11.5 1.5 0.2 2.7 0 2.7 -0.3 0 -0.4 -2 -4.4 -4.5 -8.9 -5.7 -10.4 -5.9 -14.2 -1.1 -17.3 11 -7.1 9.3 -26 -2.9 -31.4 -3.8 -1.7 -6.4 -1.9 -19.2 -1.7 l-14.8 0.3 -0.3 29.8 -0.2 29.7 4.5 0 4.5 0 0 -11.5z m95 8.6 c0 -3.7 -1.4 -4.1 -16.8 -4.1 l-12.3 0 0.3 -9.2 0.3 -9.3 9.5 -0.5 9.5 -0.5 0 -3 0 -3 -9.8 -0.3 -9.8 -0.3 0.3 -9.7 0.3 -9.7 14 -0.5 14 -0.5 0 -3 0 -3 -18.2 -0.3 -18.3 -0.2 0 30 0 30 18.5 0 18.5 0 0 -2.9z m120 0 c0 -2.6 -0.3 -2.9 -4.6 -3.5 -2.6 -0.3 -9.1 -0.6 -14.6 -0.6 l-9.9 0 0.3 -9.2 0.3 -9.3 9.5 -0.5 9.5 -0.5 0 -3 0 -3 -9.5 -0.5 -9.5 -0.5 0 -9.5 0 -9.5 14.3 -0.3 14.3 -0.3 -0.3 -3.2 -0.3 -3.2 -18.2 -0.3 -18.3 -0.2 0 30 0 30 18.5 0 18.5 0 0 -2.9z m26.3 -1.1 l1.5 -4 17.6 0 17.6 0 1.6 4 c1.4 3.4 2.1 4 4.5 4 1.6 0 2.9 -0.2 2.9 -0.4 0 -0.2 -5.6 -13.3 -12.5 -29.1 -6.9 -15.8 -12.5 -29.1 -12.5 -29.6 0 -0.5 -0.6 -0.9 -1.3 -0.9 -0.9 0 -22.7 48.6 -26.5 59.1 -0.2 0.5 1 0.9 2.6 0.9 2.5 0 3.1 -0.6 4.5 -4z"/>
  <path d="M1616 555.5 c0 -3.1 2.1 -8.9 12.2 -33.3 3 -7.3 3 -7.3 6.6 -7 l3.5 0.3 7.4 17.5 c5.1 12.4 7.3 18.7 7.3 21.8 l0 4.2 -18.5 0 -18.5 0 0 -3.5z"/>
  <path d="M2045.9 443.5 c0 -0.3 -0.1 -10.7 -0.1 -23.2 l-0.1 -22.8 3.6 0.1 c17.4 0.2 18.5 0.3 21.7 3 4.8 4.1 6 8.2 6 20.3 0 12.5 -1.9 17.8 -7.2 21.1 -2.7 1.7 -5 2 -13.5 2 -5.7 0 -10.3 -0.2 -10.4 -0.5z"/>
  <path d="M2250 408.5 l0 -11.5 10.8 0.6 c13.9 0.7 15.1 1 16.2 4 1.8 4.6 1.2 12.9 -1.1 15.8 -2 2.5 -2.3 2.6 -14 2.6 l-11.9 0 0 -11.5z"/>
  <path d="M2320 432.1 c0 -1.6 1.9 -7.3 4.1 -12.6 l4.2 -9.6 3.5 0.3 c3.3 0.3 3.6 0.7 7.3 8.8 2.1 4.7 3.8 10.2 3.8 12.3 l0.1 3.7 -11.5 0 -11.5 0 0 -2.9z"/>
  <path d="M2045.8 330.4 c-0.2 -0.5 -0.2 -11.2 0 -23.8 l0.4 -22.8 10.8 0.4 c8.9 0.4 11.2 0.8 13.7 2.6 4.7 3.3 6.3 8.6 6.3 20.7 0 12.2 -1.6 17.4 -6.4 20.8 -2.6 1.9 -4.7 2.2 -13.7 2.5 -5.9 0.2 -10.8 0 -11.1 -0.4z"/>
  <path d="M2378 318.7 c0 -1.9 1.7 -7.4 3.9 -12.3 l3.8 -8.9 3.7 0 3.8 0 3.8 9 c2.2 5 3.9 10.5 4 12.3 l0 3.2 -11.5 0 -11.5 0 0 -3.3z"/>
  <path d="M2045 182.5 l0 -11.5 11.5 0 c11 0 11.7 0.1 14 2.5 2.2 2.1 2.5 3.3 2.5 9 0 5.7 -0.3 6.9 -2.5 9 -2.3 2.4 -3 2.5 -14 2.5 l-11.5 0 0 -11.5z"/>
  <path d="M2294.1 205.3 c0 -2.1 1.7 -7.6 3.8 -12.3 3.7 -8.5 3.7 -8.5 7.4 -8.5 l3.8 0 3.9 9 c2.2 4.9 4 10.4 4 12.2 l0 3.3 -11.5 0 -11.5 0 0.1 -3.7z"/>
  <path d="M1821 551.8 c0 -5.2 2.8 -10.1 7.2 -12.8 2.5 -1.5 5.1 -2 10.6 -2 11.9 0 17.2 4.2 17.2 13.6 l0 5.4 -17.5 0 -17.5 0 0 -4.2z"/>
  <path d="M2528.2 434.3 l0.3 -9.8 8.6 0.3 c9.1 0.3 11.4 -0.7 10.7 -4.5 -0.3 -1.5 -1.7 -1.9 -9.8 -2.3 l-9.5 -0.5 -0.3 -9.7 -0.3 -9.8 12.3 0 c6.8 0 14 -0.3 16.1 -0.6 l3.7 -0.7 0 23.7 0 23.6 -16 0 -16.1 0 0.3 -9.7z"/>
 </g>
 <g fill="#3a3a3a">
  <path d="M222 458.9 c-6.3 -2.5 -7.7 -4.8 -29.7 -47.9 -15.5 -30.1 -35.9 -70 -51.2 -100 -7.2 -14 -19.5 -38.1 -27.4 -53.4 l-14.2 -27.9 -0.5 109.6 -0.5 109.5 -2.4 2.6 -2.4 2.6 -44.4 0 -44.4 0 -2.5 -2.7 -2.4 -2.6 0.2 -219.4 0.3 -219.5 3 -2.4 3 -2.4 41.5 0 c38.1 0 41.8 0.2 45.5 1.9 2.2 1 4.8 2.7 5.7 3.7 0.9 1.1 6.9 13 13.4 26.4 6.4 13.5 26.4 55.6 44.4 93.5 18.1 38 38.7 81.4 45.9 96.5 7.3 15.1 16.4 34.3 20.4 42.7 3.9 8.4 7.5 14.9 7.9 14.5 0.6 -0.6 37.4 -78 112 -235.7 9.3 -19.8 17.8 -36.8 18.7 -37.9 0.9 -1 3.3 -2.7 5.3 -3.7 3.5 -1.8 6.5 -1.9 45.3 -1.9 l41.7 0 2.9 2.9 2.9 2.9 0 219.4 0 219.5 -2.3 2.1 c-2.3 2.1 -2.6 2.2 -46.1 2.2 -44.3 0.1 -45.4 0 -48.8 -3.3 -0.2 -0.1 -0.5 -49.7 -0.8 -110.2 l-0.5 -110 -15.6 30.5 c-8.6 16.8 -33.8 66.1 -55.9 109.5 -22.2 43.5 -41.3 80.4 -42.6 82.1 -3.4 4.7 -9.8 7.4 -17 7.3 -3.2 0 -7 -0.5 -8.4 -1z"/>
  <path d="M1403.5 459 c-51.9 -3.9 -103.4 -27.2 -141.7 -63.9 -36.7 -35.1 -59 -77.8 -67.5 -128.6 -2.8 -17.1 -2.6 -59.6 0.5 -76 8.8 -47.9 29.4 -87.6 62.8 -120.9 29.5 -29.6 68.5 -52 107.9 -62.1 35.4 -9.1 66.5 -9.8 103.5 -2.5 47.5 9.5 89.1 32.5 120 66.6 7 7.7 8.6 11.1 7.3 14.9 -1.1 3.3 -56 58.4 -58.9 59.1 -4.2 1.1 -7 -0.5 -11.2 -6 -10.6 -14 -30.2 -29.9 -47.7 -38.6 -64.9 -32.3 -137.4 -7.5 -171.3 58.7 -17.3 33.8 -21.3 76 -10.6 112.8 6.9 23.8 23.1 50.8 40.1 66.6 26.8 25.1 58.9 36.2 95.1 33.1 20.9 -1.8 37.8 -5.9 53.7 -13.1 l6.5 -3 0 -28.5 0 -28.6 -23.2 0 c-12.8 0 -24.9 -0.5 -26.9 -1 -6.7 -1.9 -7 -3.9 -6.7 -35.6 l0.3 -27.6 2.8 -2.4 2.8 -2.4 73.4 0 c51.7 0 74.1 0.3 75.8 1.1 1.4 0.6 3 2.2 3.6 3.6 0.8 1.7 1.1 27.4 1.1 88 l0 85.7 -4.7 4.5 c-9.1 8.7 -29.6 19.6 -50.8 26.8 -39.1 13.5 -100 22.1 -136 19.3z"/>
  <path d="M1694.5 454.2 c-3.2 -1.1 -5.1 -2.6 -6.4 -4.9 -1.5 -2.9 -1.6 -436.5 -0.1 -439.4 2.8 -5.1 -3.8 -4.9 145.5 -4.9 151.5 0 142.9 -0.3 145.4 5.7 0.8 2.1 1.1 13.1 0.9 39.5 l-0.3 36.6 -2.4 2.6 -2.4 2.6 -94.4 0 -94.3 0 0 48.5 0 48.5 62.6 0 62.6 0 2.9 2.9 2.9 2.9 0 37.7 0 37.7 -2.9 2.9 -2.9 2.9 -62.6 0 -62.6 0 0 45.5 0 45.5 92.9 0 c65.3 0 93.7 0.3 96 1.1 6 2.1 6.1 3 6.1 43.3 l0 36.6 -2.9 3.2 -2.9 3.3 -139.4 0.2 c-76.6 0 -140.2 -0.2 -141.3 -0.5z"/>
  <path d="M2471.8 453.9 c-25.2 -3.9 -36.7 -36 -19.7 -55.3 2.5 -2.8 6.6 -5.8 10.7 -7.8 6 -3 7.6 -3.3 15.2 -3.3 7.3 0.1 9.3 0.5 14 2.9 5.8 2.9 11 7.2 11 9.1 0 0.6 -1.9 3 -4.3 5.3 l-4.3 4.2 -2.5 -2.6 c-11 -11.9 -29.4 -6.5 -33 9.7 -2.4 10.4 4.6 22.9 13.9 25 7.3 1.6 14.4 -0.5 19.1 -5.5 1.4 -1.4 3 -2.6 3.6 -2.6 0.6 0 2.8 1.8 5 4 l3.9 4 -3 3.1 c-7.5 8.1 -18.2 11.6 -29.6 9.8z"/>
  <path d="M565.7 452.9 c-5 -2.9 -4.7 9.4 -4.7 -223.3 0 -153.5 0.3 -217.2 1.1 -218.9 2.6 -5.6 3 -5.7 48.2 -5.7 24.1 0 42.6 0.4 44.1 1 6 2.2 5.6 -13.6 5.6 224.4 l0 217.4 -2.6 3.1 -2.6 3.1 -43.6 0 c-27.8 0 -44.3 -0.4 -45.5 -1.1z"/>
  <path d="M2034.7 453.3 c-0.4 -0.3 -0.7 -15.2 -0.7 -33 l0 -32.3 15.3 0 c10.9 0 16.8 0.4 20.5 1.5 11.9 3.6 19.2 15.3 19.2 31 0 16.4 -9 29.6 -22 32.4 -5.5 1.2 -31.2 1.5 -32.3 0.4z m32.1 -14.3 c4.8 -3 7.2 -8.8 7.2 -18.1 0 -8.9 -1.6 -13.6 -6 -17.3 -2.8 -2.3 -4 -2.6 -10.6 -2.6 -4.1 0 -7.6 0 -7.9 0 -0.4 0 -0.8 32.7 -0.5 39.5 0 0.3 3.3 0.5 7.3 0.5 5.5 0 8 -0.5 10.5 -2z"/>
  <path d="M2103 421 l0 -33 21.5 0 21.5 0 0 5.9 c0 4.4 -0.4 6 -1.6 6.5 -0.9 0.3 -7.4 0.6 -14.5 0.6 l-13 0 0.3 6.8 0.3 6.7 9.5 0.5 9.5 0.5 0.3 3.9 c0.2 2.2 0.1 5 -0.2 6.3 -0.6 2.2 -1 2.3 -10.1 2.3 l-9.5 0 0 6.5 0 6.5 14.5 0 14.6 0 -0.3 6.3 -0.3 6.2 -21.2 0.3 -21.3 0.2 0 -33z"/>
  <path d="M2183.5 452.8 c-0.3 -0.7 -0.4 -15.5 -0.3 -32.8 l0.3 -31.5 21.3 -0.3 21.3 -0.2 -0.3 6.2 -0.3 6.3 -13.8 0 -13.7 0 0 7.2 0 7.2 9.8 0.3 9.7 0.3 0 6 0 6 -9.7 0.3 -9.7 0.3 -0.3 12.7 -0.3 12.7 -6.8 0.3 c-4.8 0.2 -6.9 -0.1 -7.2 -1z"/>
  <path d="M2238.5 452.8 c-0.3 -0.7 -0.4 -15.5 -0.3 -32.8 l0.3 -31.5 18 -0.3 c9.9 -0.1 19 0 20.2 0.3 3.5 0.8 8.4 5.6 10.4 10 2.5 5.4 2.5 15.6 0 21.1 -1 2.2 -3.5 5.4 -5.5 7.1 l-3.7 3 6.1 11.3 c3.6 6.7 5.7 11.7 5.2 12.2 -0.5 0.5 -3.7 0.8 -7.2 0.6 l-6.2 -0.3 -6.2 -11.7 -6.1 -11.8 -5.2 0 -5.2 0 -0.3 11.8 -0.3 11.7 -6.8 0.3 c-4.8 0.2 -6.9 -0.1 -7.2 -1z m34.5 -38.5 c1.7 -2.2 2.1 -3.7 1.7 -6.7 -0.3 -2.1 -1 -4.4 -1.7 -5 -0.6 -0.6 -5.3 -1.3 -10.5 -1.6 l-9.5 -0.5 0 8.3 0 8.2 8.9 0 c8.6 0 9 -0.1 11.1 -2.7z"/>
  <path d="M2300.5 453.1 c-0.3 -0.5 5.7 -15.5 13.4 -33.3 l14 -32.3 3.5 -0.3 c3.2 -0.3 3.7 0 5.4 3.5 4.1 8.2 26.2 60.2 26.2 61.7 0 1.3 -1.2 1.6 -6.6 1.6 l-6.5 0 -2 -4.5 -2 -4.5 -14.3 0 -14.3 0 -1.7 4.5 -1.8 4.5 -6.3 0 c-3.5 0 -6.6 -0.4 -7 -0.9z m39.5 -21.5 c0 -0.2 -0.9 -2.5 -2 -5 -1.1 -2.5 -2.9 -6.7 -4.1 -9.3 -2.4 -5.5 -2.1 -5.8 -7.4 6.6 l-3.4 8.1 8.4 0 c4.7 0 8.5 -0.2 8.5 -0.4z"/>
  <path d="M2376.5 452.8 c-0.3 -0.7 -0.4 -15.5 -0.3 -32.8 l0.3 -31.5 6.9 0 6.9 0 12.6 18.6 12.6 18.6 0.5 -18.6 0.5 -18.6 7.3 -0.3 7.2 -0.3 -0.2 32.8 -0.3 32.8 -5.5 0.3 c-3 0.1 -6 -0.1 -6.6 -0.5 -0.6 -0.5 -6.9 -9.3 -14 -19.8 l-12.9 -19 -0.5 19.5 -0.5 19.5 -6.8 0.3 c-4.8 0.2 -6.9 -0.1 -7.2 -1z"/>
  <path d="M2517.7 453.3 c-0.4 -0.3 -0.7 -15.2 -0.7 -33 l0 -32.3 21.5 0 21.5 0 0 5.9 c0 4.4 -0.4 6 -1.6 6.5 -0.9 0.3 -7.4 0.6 -14.5 0.6 l-13 0 0.3 6.8 0.3 6.7 9.5 0.5 9.5 0.5 0.3 4.8 c0.5 7.2 -0.5 7.9 -10.7 7.5 l-8.6 -0.3 -0.3 6.8 -0.3 6.7 14.6 0 14.5 0 0 6.5 0 6.5 -20.8 0 c-11.5 0 -21.2 -0.3 -21.5 -0.7z"/>
  <path d="M2035.3 340.4 c-1 -0.4 -1.3 -8 -1.3 -33 l0 -32.4 16.8 0 c18.6 0 22.5 1 29 7.3 11.7 11.2 12.3 36.3 1.2 48.9 -6.3 7.2 -11.1 8.7 -29.2 9.3 -8.4 0.3 -15.9 0.2 -16.5 -0.1z m32.4 -15.2 c4.3 -3 6.3 -8.8 6.3 -17.7 0 -14.5 -4 -19.3 -17 -20.2 l-7.9 -0.6 -0.3 20.2 c-0.2 11.2 -0.1 20.5 0.2 20.8 0.3 0.3 3.9 0.3 8.1 0.1 5.7 -0.3 8.4 -1 10.6 -2.6z"/>
  <path d="M2103.7 340.3 c-0.4 -0.3 -0.7 -15.2 -0.7 -33 l0 -32.3 21.5 0 21.5 0 0 6 0 5.9 -14.2 0.3 -14.3 0.3 -0.3 6.8 -0.3 6.7 8.8 0 c4.8 0 9.4 0.4 10.1 0.9 0.9 0.5 1.2 2.5 1 6.2 l-0.3 5.4 -9.5 0.5 -9.5 0.5 0 6.5 0 6.5 14.3 0.3 14.2 0.3 0 5.8 c0 4.4 -0.4 6 -1.6 6.5 -2.1 0.8 -39.9 0.8 -40.7 -0.1z"/>
  <path d="M2169.5 339.3 c-5.8 -2.1 -11.5 -5.9 -11.5 -7.7 0 -0.6 1.8 -2.9 4 -5.1 l4 -3.9 5.1 2.5 c9.5 4.4 21.7 2.8 23.2 -3.1 0.9 -3.5 -2.3 -5.5 -12.4 -8 -16.1 -3.9 -22.5 -8.4 -23.6 -17 -1.3 -9.3 3.4 -16.9 12.9 -21 4.4 -1.9 6.5 -2.2 13.9 -1.8 7.4 0.3 9.6 0.9 15.5 3.9 3.8 1.8 6.9 3.9 7.1 4.4 0.1 0.6 -1.5 3 -3.7 5.4 l-3.9 4.5 -5.2 -2.5 c-12.3 -5.7 -28.8 -0.5 -20.9 6.6 1.1 1 6.8 3.1 12.7 4.7 15.9 4.3 21 8.3 22 17.2 1 8.2 -3.3 15.8 -11.1 19.8 -5.8 3.1 -21 3.6 -28.1 1.1z"/>
  <path d="M2247.7 340.4 c-0.4 -0.4 -0.7 -15.3 -0.7 -33.1 l0 -32.3 7.3 0 7.2 0 9.4 20.1 c5.2 11 9.8 19.6 10.2 19.2 0.4 -0.4 4.8 -9.3 9.7 -19.8 l8.9 -19 6.8 -0.5 c4.1 -0.3 6.9 -0.1 7.1 0.5 0.3 0.6 0.3 15.4 0.2 33 l-0.3 32 -4.4 0.3 c-9.4 0.7 -9 1.3 -9.3 -16.6 l-0.3 -15.7 -8.3 16.3 c-7 13.8 -8.5 16.2 -10.5 16.2 -1.8 0 -2.9 -1.2 -5.1 -5.7 -1.5 -3.2 -5.3 -10.5 -8.4 -16.3 l-5.7 -10.5 -0.5 16 -0.5 16 -6 0.3 c-3.4 0.2 -6.4 0 -6.8 -0.4z"/>
  <path d="M2332.3 340.4 c-1 -0.4 -1.3 -8 -1.3 -32.9 l0 -32.3 6.6 -0.4 c3.9 -0.2 6.8 0.1 7 0.7 0.3 0.6 0.3 15.4 0.2 33 l-0.3 32 -5.5 0.2 c-3 0.1 -6.1 -0.1 -6.7 -0.3z"/>
  <path d="M2358.4 339.6 c-0.3 -0.7 5.7 -15.7 13.3 -33.2 l13.8 -31.9 4 0 3.9 0 9.3 21.5 c17.5 40.3 18.5 42.9 17.8 43.9 -0.3 0.6 -3.3 1.1 -6.6 1.1 l-5.9 0 -2.2 -4.5 -2.2 -4.5 -14.1 0 -14.1 0 -2.2 4.5 -2.2 4.5 -6 0 c-4.2 0 -6.2 -0.4 -6.6 -1.4z m38.7 -22.8 c-3 -7.7 -6.7 -15.6 -7.5 -15.9 -0.7 -0.3 -8.6 16.1 -8.6 17.8 0 0.2 3.8 0.3 8.5 0.3 8.4 0 8.4 0 7.6 -2.2z"/>
  <path d="M2450.3 339.6 c-8.7 -2.8 -15.4 -8.6 -20 -17.6 -2.5 -4.8 -2.8 -6.6 -2.8 -14.5 0 -8 0.3 -9.7 2.9 -14.8 3.4 -6.7 8.3 -11.5 15.8 -15.4 4.7 -2.5 6.3 -2.8 14.8 -2.8 8.1 0 10.2 0.4 14 2.4 6.7 3.5 11 7 11 8.9 0 1.7 -6.8 9.2 -8.2 9.2 -0.4 0 -2.2 -1.4 -4 -3 -8.7 -8 -22.1 -6.5 -28.5 3.2 -4 6 -4.5 16.4 -1 22.8 1.3 2.5 4.2 5.8 6.5 7.4 3.5 2.5 5.1 2.9 10 2.9 8.1 -0.1 10.2 -1.4 10.2 -6.3 0 -3.8 -0.1 -3.9 -3.7 -4.2 -3.8 -0.3 -3.8 -0.4 -4.1 -5 -0.3 -4.3 -0.1 -4.8 2.1 -5.3 1.3 -0.4 6.4 -0.5 11.3 -0.3 l8.9 0.3 0.3 13.6 0.3 13.7 -4.4 2.1 c-8.3 4 -23 5.3 -31.4 2.7z"/>
  <path d="M2502.1 339.6 c-0.8 -0.9 -1.1 -10.4 -0.9 -32.7 l0.3 -31.4 21.5 0 21.5 0 0 5.5 0 5.5 -14.2 0.3 -14.3 0.3 0 6.9 0 6.9 9.3 0.3 9.2 0.3 0.3 6.3 0.3 6.2 -9.6 0 -9.5 0 0 7 0 6.9 14.3 0.3 14.2 0.3 0.3 3.9 c0.2 2.2 0.1 5 -0.2 6.3 l-0.6 2.3 -20.4 0 c-16 0 -20.6 -0.3 -21.5 -1.4z"/>
  <path d="M2168.5 226.7 c-5.6 -1.9 -9.7 -4.1 -11.9 -6.6 -2 -2.2 -1.9 -2.2 2.4 -6.6 l4.4 -4.4 3.2 1.9 c7.8 4.9 21.4 4.3 24.1 -1 2.3 -4.7 -0.2 -6.5 -14.4 -9.9 -8.9 -2.2 -12.6 -3.8 -16 -7 -4 -3.8 -5.6 -8 -5.1 -13.7 0.6 -7.4 4.2 -12.5 11.2 -15.9 5.2 -2.5 6.3 -2.7 15.4 -2.3 8.7 0.3 10.7 0.8 16.5 3.6 3.7 1.8 6.7 3.9 6.7 4.5 0 1.5 -8 9.9 -8.9 9.4 -10.8 -5.9 -23.2 -6.1 -26.2 -0.5 -1.9 3.5 1.1 6.3 8.8 8.3 16.5 4.2 21 6.4 25 12.4 3.9 5.8 2.5 16 -3 21.9 -4.3 4.6 -9.6 6.5 -19.2 6.8 -5.7 0.3 -10.5 -0.1 -13 -0.9z"/>
  <path d="M2362.2 227 c-5.1 -1.2 -9.9 -5.1 -12.9 -10.5 l-2.8 -5 -0.3 -25.2 -0.4 -25.3 7.1 0 7.1 0 0 20.8 c0 22.5 0.7 27.1 4.1 30.8 3.2 3.4 11.6 3.5 14.6 0.2 3.6 -4.1 3.8 -5.1 4.3 -28.3 l0.5 -23 6.8 -0.3 6.7 -0.3 0 24 c0 26.8 -0.7 31 -6.3 36.9 -5.1 5.3 -18 7.7 -28.5 5.2z"/>
  <path d="M2033.2 194.3 l0.3 -32.8 17.5 -0.3 c19.8 -0.3 24.3 0.6 28.4 6.1 3.6 4.7 4.7 8.4 4.7 15.5 0 7.6 -2.8 14.2 -7.4 17.4 -1.8 1.2 -3.4 2.3 -3.5 2.4 -0.2 0.1 2.4 5.4 5.7 11.7 3.4 6.2 6.1 11.7 6.1 12.1 0 0.4 -3.3 0.6 -7.2 0.4 l-7.3 -0.3 -5.8 -11.2 -5.8 -11.3 -5.4 0 -5.5 0 0 11.5 0 11.5 -7.5 0 -7.5 0 0.2 -32.7z m34.3 -5.8 c1.7 -1.6 2.5 -3.5 2.5 -6 0 -2.5 -0.8 -4.4 -2.5 -6 -2.2 -2.3 -3.2 -2.5 -11 -2.5 l-8.5 0 0 8.5 0 8.5 8.5 0 c7.8 0 8.8 -0.2 11 -2.5z"/>
  <path d="M2100 194 l0 -33 21.3 0.2 21.2 0.3 0 6 0 6 -14 0.5 -14 0.5 -0.3 6.7 -0.3 6.7 9.8 0.3 9.8 0.3 0 6 0 6 -9.5 0.5 -9.5 0.5 -0.3 6.3 -0.3 6.2 12.3 0 c17.1 0 16.8 -0.1 16.8 7.1 l0 5.9 -21.5 0 -21.5 0 0 -33z"/>
  <path d="M2220 194 l0 -33 21.3 0.2 21.2 0.3 0.3 6.2 0.3 6.2 -14.3 0.3 -14.3 0.3 0 6.5 0 6.5 9.5 0.5 9.5 0.5 0 6 0 6 -9.5 0.5 -9.5 0.5 -0.3 6.3 -0.3 6.2 11.3 0.1 c19.3 0.2 17.3 -0.6 17.6 6.7 l0.3 6.2 -21.6 0 -21.5 0 0 -33z"/>
  <path d="M2274.3 225.1 c0.2 -1.1 6.5 -15.9 13.8 -33 8.5 -19.8 14 -31.3 15.1 -31.6 3.5 -1.2 6.4 0.5 8 4.8 0.9 2.3 7.1 16.7 13.7 32 6.7 15.2 12.1 28.2 12.1 28.7 0 0.6 -3 1 -6.9 1 l-6.9 0 -1.6 -4 -1.6 -4 -14.6 0 -14.6 0 -1.5 4 -1.6 4 -7 0 c-6.4 0 -6.9 -0.2 -6.4 -1.9z m39.7 -19.4 c0 -1.2 -8.1 -18.2 -8.7 -18.2 -0.6 0 -8.1 16 -8.2 17.8 -0.1 0.4 3.7 0.7 8.4 0.7 4.7 0 8.5 -0.1 8.5 -0.3z"/>
  <path d="M2111.6 156.4 c-0.3 -0.9 -0.6 -1.8 -0.6 -2 0 -0.4 5.9 -4.3 14.3 -9.3 l3.7 -2.3 1.6 3.7 c0.8 2.1 1.3 4.2 1.1 4.9 -0.4 1 -15.9 6.6 -18.4 6.6 -0.6 0 -1.4 -0.7 -1.7 -1.6z"/>
 </g>
 <g fill="#2f727d">
  <path d="M1830.7 585.6 c-11.1 -4.1 -17.7 -14.3 -17.7 -27.2 0 -12.6 6.3 -22.4 16.8 -26.4 6.7 -2.6 12.7 -2.5 19.6 0 8.7 3.3 13.2 10.1 15 22.6 1 7.2 0.7 7.3 -21.1 7.5 -16.4 0.1 -19.3 0.4 -19.3 1.6 0 2.8 4.1 8.8 7.5 11.2 4.9 3.3 14.5 2.8 19.6 -1.2 4.5 -3.4 7.4 -3.4 9.5 -0.2 1.5 2.3 1.5 2.7 0 5 -0.9 1.4 -4 3.7 -6.9 5.1 -6.3 3.3 -17.1 4.2 -23 2z m22.3 -35 c0 -1.3 -0.9 -3.5 -2.1 -5 -6.4 -8.2 -19.5 -7.3 -24.9 1.6 -3.5 5.8 -3.4 5.8 12.5 5.8 l14.5 0 0 -2.4z"/>
  <path d="M1953.3 585.6 c-5.2 -1.7 -10.9 -5.2 -11.7 -7.1 -0.8 -2.2 1.4 -6.4 3.6 -7.1 1.1 -0.3 2.7 0.1 3.6 0.9 5.8 5.1 16.8 6.4 21.6 2.6 2.9 -2.3 3.4 -5.9 1.1 -8.3 -1.4 -1.4 -10.3 -4.6 -12.7 -4.6 -3 0 -11.9 -5.5 -13.7 -8.4 -2.7 -4.3 -2.7 -11 -0.1 -15.4 3.2 -5.2 11.5 -8.6 19.4 -8 6.5 0.6 14.3 3.8 15.3 6.4 0.8 2.1 -1.7 6.4 -3.7 6.4 -1 0 -3.4 -0.7 -5.3 -1.5 -8.7 -3.6 -18.7 -0.8 -17.3 4.8 0.6 2.7 6.7 6.7 10 6.7 3.5 0 13.3 4.6 16.4 7.6 2.8 2.8 3.2 3.9 3.2 8.3 0 6 -1.7 9.8 -6 13.4 -5.4 4.6 -15.1 5.9 -23.7 3.3z"/>
  <path d="M1598.2 584.8 c-0.6 -0.6 -1.2 -1.8 -1.2 -2.5 0 -0.7 5.9 -15.6 13.1 -33 23.8 -57.5 21.1 -51.8 24.4 -52.1 l3 -0.3 17.8 42.6 c19.3 46.2 19.3 46.5 12.3 46.5 -4.2 0 -4.6 -0.5 -8.9 -11 l-3.5 -8.5 -20.4 -0.3 -20.3 -0.2 -4 9.7 c-3.9 9.6 -4.1 9.8 -7.5 10.1 -1.9 0.2 -4.1 -0.3 -4.8 -1z m51.8 -30 c0 -0.6 -2.5 -7.3 -5.6 -14.7 -10.1 -24.2 -9.4 -22.8 -10.6 -20.8 -1.1 2 -14.8 35.6 -14.8 36.3 0 0.2 7 0.4 15.5 0.4 11.2 0 15.5 -0.3 15.5 -1.2z"/>
  <path d="M1688 584.1 c-0.6 -1.2 -1 -11.2 -1 -25.6 0 -14.4 0.4 -24.4 1 -25.6 1.3 -2.3 5.3 -2.5 7.5 -0.3 1.5 1.6 1.9 1.6 5.3 0 7.9 -3.8 18.3 -2.9 24.1 2 2 1.6 3.2 2.1 3.6 1.3 1.5 -2.2 11 -5.9 15.6 -5.9 5.7 0 12.5 2.3 15.8 5.3 4.8 4.4 5.5 7.9 5.8 27.4 0.4 21.1 -0.1 23.3 -5.1 23.3 -1.8 0 -3.8 -0.6 -4.4 -1.3 -0.7 -0.7 -1.2 -8.9 -1.4 -20.6 l-0.3 -19.3 -2.8 -2.4 c-4.6 -3.9 -13.1 -3.1 -17.6 1.7 -2 2.1 -2.1 3.4 -2.1 20.2 0 10.4 -0.4 18.6 -1 19.8 -1.2 2.2 -6.8 2.7 -8.8 0.7 -0.8 -0.8 -1.2 -6.5 -1.2 -18.9 0 -17.9 -0.7 -22.2 -3.8 -24.5 -3.9 -3 -15.9 -0.7 -18.1 3.4 -0.7 1.3 -1.1 9 -1.1 19.7 0 10.2 -0.4 18.4 -1 19.6 -0.7 1.3 -2.1 1.9 -4.5 1.9 -2.4 0 -3.8 -0.6 -4.5 -1.9z"/>
  <path d="M1786.2 584.8 c-1.6 -1.6 -1.7 -49 -0.2 -51.9 1.3 -2.3 6.2 -2.6 8.4 -0.3 1.4 1.3 1.6 5.1 1.6 25.5 0 14.7 -0.4 24.8 -1 26 -1.2 2.2 -6.8 2.7 -8.8 0.7z"/>
  <path d="M1881.3 585.3 c-1 -0.3 -1.3 -6.7 -1.3 -26.8 0 -23 0.2 -26.4 1.6 -26.9 2.9 -1.1 5.4 -0.6 6.6 1.3 1.2 1.9 1.2 1.9 5.2 -0.1 8.7 -4.4 22.2 -3 27.9 3 5.1 5.3 5.7 8.5 5.7 29.6 0 21.2 0.2 20.6 -6.1 20.6 -3.7 0 -3.8 -0.3 -4.2 -22 -0.2 -9.6 -0.7 -18.3 -1.1 -19.3 -2 -4.4 -13.6 -6.3 -19.6 -3.2 -5.7 2.9 -6 4.3 -6 24 0 12.7 -0.4 18.5 -1.2 19.3 -1.2 1.2 -5.2 1.5 -7.5 0.5z"/>
  <path d="M2036.5 582.5 c-2.5 -2.4 -2.5 -2.4 -2.5 -24 l0 -21.6 2.6 -2.4 2.7 -2.5 172.4 0 c184 0 176.9 -0.2 178.7 4.5 0.3 0.9 0.6 11.1 0.6 22.6 0 21 0 21 -2.5 23.4 l-2.4 2.5 -173.6 0 -173.6 0 -2.4 -2.5z"/>
  <path d="M1786 512 c-2.4 -2.4 -2.5 -4.8 -0.4 -7.8 1.5 -2.2 5.7 -3 8 -1.4 3.6 2.4 3.4 8.1 -0.5 10.1 -2.9 1.6 -4.9 1.3 -7.1 -0.9z"/>
  <path d="M734.5 451.5 c-1.4 -1.3 -2.6 -3.2 -2.6 -4.2 -0.3 -4.6 -0.1 -5.1 13.9 -37.3 2.7 -6.3 10.7 -24.8 17.7 -41 7 -16.2 16.9 -39.2 22 -51 5.1 -11.8 24.2 -56.1 42.5 -98.5 18.3 -42.4 41.3 -95.7 51.2 -118.5 9.8 -22.8 22.9 -53.1 29 -67.3 9.4 -21.9 11.5 -26 13.9 -27.2 2.2 -1.2 7.6 -1.5 25.4 -1.5 23.1 0 27.3 0.6 28.8 4.2 0.3 0.7 6 13.9 12.7 29.3 6.7 15.4 18.4 42.4 26 60 7.6 17.6 19.7 45.7 27 62.5 28.3 65.2 39.3 90.7 42 97 7.8 18.1 25.8 59.8 33.5 77.5 29 66.4 46.5 107.9 46.5 110 0 1.3 -1.2 3.7 -2.6 5.4 l-2.6 3.1 -43.7 0 c-40.5 0 -43.9 -0.1 -45.3 -1.7 -1.5 -1.8 -5.4 -10.6 -30.8 -69.3 -13.9 -32.1 -74.2 -171.2 -84.8 -195.7 -3.7 -8.4 -6.9 -14.9 -7.3 -14.5 -0.4 0.4 -10.1 22.8 -21.7 49.7 -11.5 27 -35.7 83.2 -53.7 125 -18 41.8 -35.2 81.9 -38.2 89 -3.1 7.2 -6.5 14 -7.6 15.3 l-2 2.2 -43.4 0 -43.4 0 -2.4 -2.5z"/>
 </g>
</svg>